<svg width="13" height="14" viewBox="0 0 13 14" fill="none" xmlns="http://www.w3.org/2000/svg">
<mask id="path-1-inside-1_3633_1628" fill="white">
<path d="M12.9731 13.6671V12.1856C12.9731 11.3998 12.6531 10.6461 12.0836 10.0905C11.514 9.53482 10.7414 9.22266 9.93589 9.22266H3.86144C3.05592 9.22266 2.28338 9.53482 1.7138 10.0905C1.14421 10.6461 0.824219 11.3998 0.824219 12.1856V13.6671"/>
</mask>
<path d="M1.7138 10.0905L2.76125 11.1642L2.76126 11.1642L1.7138 10.0905ZM14.4731 13.6671V12.1856H11.4731V13.6671H14.4731ZM14.4731 12.1856C14.4731 10.9898 13.9858 9.8507 13.131 9.0168L11.0361 11.1642C11.3204 11.4416 11.4731 11.8098 11.4731 12.1856H14.4731ZM13.131 9.0168C12.2774 8.18404 11.1274 7.72266 9.93589 7.72266V10.7227C10.3554 10.7227 10.7505 10.8856 11.0361 11.1642L13.131 9.0168ZM9.93589 7.72266H3.86144V10.7227H9.93589V7.72266ZM3.86144 7.72266C2.66992 7.72266 1.51993 8.18406 0.666343 9.01678L2.76126 11.1642C3.04684 10.8856 3.44192 10.7227 3.86144 10.7227V7.72266ZM0.666355 9.01677C-0.188507 9.85072 -0.675781 10.9899 -0.675781 12.1856H2.32422C2.32422 11.8098 2.47692 11.4416 2.76125 11.1642L0.666355 9.01677ZM-0.675781 12.1856V13.6671H2.32422V12.1856H-0.675781Z" fill="white" mask="url(#path-1-inside-1_3633_1628)"/>
<path d="M9.93578 3.29646C9.93578 4.93285 8.57597 6.25942 6.89855 6.25942C5.22114 6.25942 3.86133 4.93285 3.86133 3.29646C3.86133 1.66007 5.22114 0.333496 6.89855 0.333496C8.57597 0.333496 9.93578 1.66007 9.93578 3.29646Z" fill="white"/>
</svg>
